<svg width="40" height="40" viewBox="0 0 40 40" fill="none" xmlns="http://www.w3.org/2000/svg">
<path d="M24.7 7.09998C24.369 7.69279 24.074 8.30501 23.8167 8.93331C21.2879 8.53339 18.7121 8.53339 16.1833 8.93331C15.926 8.30501 15.631 7.69279 15.3 7.09998C12.918 7.50698 10.6023 8.23587 8.41667 9.26664C4.50823 14.9071 2.73573 21.7549 3.41667 28.5833C5.96373 30.4981 8.82243 31.9584 11.8667 32.9C12.5599 31.9843 13.1785 31.0145 13.7167 30C12.7235 29.6338 11.7688 29.1704 10.8667 28.6166C11.1141 28.452 11.3482 28.2681 11.5667 28.0666C14.1974 29.3338 17.0799 29.9919 20 29.9919C22.9201 29.9919 25.8026 29.3338 28.4333 28.0666C28.6667 28.2666 28.9 28.45 29.1333 28.6166C28.2263 29.166 27.2726 29.6345 26.2833 30.0166C26.7992 31.0542 27.4013 32.0466 28.0833 32.9833C31.1238 32.045 33.9775 30.5843 36.5167 28.6666C37.214 21.837 35.44 14.9836 31.5167 9.34998C29.3555 8.29787 27.0628 7.54109 24.7 7.09998ZM14.4667 24.6833C13.6326 24.6234 12.8542 24.2428 12.2949 23.6213C11.7355 22.9997 11.4387 22.1857 11.4667 21.35C11.4344 20.5132 11.7298 19.6968 12.29 19.0743C12.8502 18.4519 13.6311 18.0724 14.4667 18.0166C15.3022 18.0724 16.0831 18.4519 16.6433 19.0743C17.2035 19.6968 17.4989 20.5132 17.4667 21.35C17.4989 22.1868 17.2035 23.0032 16.6433 23.6256C16.0831 24.2481 15.3022 24.6275 14.4667 24.6833ZM25.5333 24.6833C24.6993 24.6234 23.9209 24.2428 23.3615 23.6213C22.8022 22.9997 22.5053 22.1857 22.5333 21.35C22.5011 20.5132 22.7965 19.6968 23.3567 19.0743C23.9169 18.4519 24.6978 18.0724 25.5333 18.0166C26.3705 18.0683 27.1538 18.4465 27.7149 19.0699C28.276 19.6933 28.5699 20.5121 28.5333 21.35C28.5699 22.1879 28.276 23.0067 27.7149 23.6301C27.1538 24.2535 26.3705 24.6317 25.5333 24.6833Z" fill="#D8F0FA"/>
</svg>
