<svg width="39" height="39" viewBox="0 0 39 39" fill="none" xmlns="http://www.w3.org/2000/svg">
<path fill-rule="evenodd" clip-rule="evenodd" d="M19.5423 3.25C10.5901 3.25 3.3345 10.5056 3.3345 19.4578C3.3345 26.6175 7.97713 32.6934 14.4186 34.8384C15.2295 34.9846 15.522 34.4858 15.522 34.0568C15.522 33.6716 15.509 32.6511 15.5041 31.3007C10.9948 32.279 10.0425 29.1265 10.0425 29.1265C9.308 27.2545 8.24363 26.7556 8.24363 26.7556C6.773 25.7498 8.35575 25.7725 8.35575 25.7725C9.984 25.8862 10.8371 27.443 10.8371 27.443C12.2834 29.9195 14.6331 29.2045 15.5529 28.7901C15.7008 27.742 16.1233 27.027 16.5848 26.6224C12.987 26.2145 9.204 24.8235 9.204 18.6111C9.204 16.8448 9.83613 15.3952 10.868 14.2642C10.7039 13.8531 10.1433 12.2037 11.0289 9.97425C11.0289 9.97425 12.389 9.53713 15.4846 11.6334C16.8067 11.2737 18.1705 11.0901 19.5406 11.0874C20.9108 11.0896 22.2746 11.2732 23.5966 11.6334C26.6939 9.5355 28.0524 9.97425 28.0524 9.97425C28.938 12.2037 28.3822 13.8531 28.2133 14.2642C29.2532 15.3952 29.8772 16.8431 29.8772 18.6111C29.8772 24.8398 26.091 26.208 22.4803 26.6094C23.0571 27.1099 23.5771 28.0979 23.5771 29.6091C23.5771 31.7769 23.5576 33.5254 23.5576 34.0568C23.5576 34.4906 23.8469 34.9944 24.674 34.8351C31.1123 32.6869 35.75 26.6159 35.75 19.4578C35.75 10.5056 28.4944 3.25 19.5423 3.25Z" fill="#D8F0FA"/>
</svg>
