<svg width="40" height="40" viewBox="0 0 40 40" fill="none" xmlns="http://www.w3.org/2000/svg">
<path d="M13.6833 28.8667L11.6667 28C11.9682 28.6178 12.4426 29.1348 13.0323 29.4881C13.622 29.8414 14.3016 30.016 14.9885 29.9905C15.6755 29.965 16.3403 29.7406 16.9022 29.3446C17.4641 28.9485 17.8989 28.3979 18.1538 27.7594C18.4088 27.121 18.4729 26.4223 18.3383 25.7481C18.2038 25.074 17.8764 24.4534 17.3959 23.9618C16.9154 23.4701 16.3025 23.1285 15.6317 22.9785C14.9608 22.8285 14.2608 22.8765 13.6167 23.1167L15.75 24C16.3954 24.2696 16.9072 24.7846 17.1729 25.4316C17.4385 26.0786 17.4363 26.8046 17.1667 27.45C16.897 28.0954 16.3821 28.6072 15.7351 28.8729C15.0881 29.1385 14.362 29.1363 13.7167 28.8667H13.6833Z" fill="#D8F0FA"/>
<path d="M20 3.33332C15.7639 3.32409 11.6832 4.92825 8.58735 7.81975C5.49153 10.7112 3.61291 14.6731 3.33333 18.9L12.3 22.5833C12.545 22.4205 12.8078 22.2863 13.0833 22.1833C13.6877 21.9238 14.3429 21.8041 15 21.8333L19.0667 15.9C19.0667 14.6474 19.4381 13.4229 20.134 12.3814C20.8299 11.3399 21.8191 10.5281 22.9763 10.0488C24.1336 9.5694 25.407 9.44398 26.6356 9.68835C27.8641 9.93272 28.9926 10.5359 29.8783 11.4216C30.7641 12.3074 31.3673 13.4359 31.6116 14.6644C31.856 15.893 31.7306 17.1664 31.2512 18.3237C30.7719 19.4809 29.9601 20.47 28.9186 21.166C27.8771 21.8619 26.6526 22.2333 25.4 22.2333H25.2667L19.4167 26.4C19.4433 27.544 19.0441 28.6571 18.2966 29.5235C17.549 30.3899 16.5064 30.9477 15.3708 31.0889C14.2352 31.2301 13.0877 30.9445 12.1508 30.2875C11.2138 29.6305 10.5543 28.649 10.3 27.5333L4.01667 24.8667C4.91735 27.8167 6.61903 30.459 8.9323 32.4993C11.2456 34.5397 14.0797 35.898 17.1191 36.4232C20.1586 36.9484 23.2842 36.6199 26.148 35.4741C29.0118 34.3283 31.5014 32.4103 33.3398 29.9335C35.1783 27.4567 36.2933 24.5184 36.5608 21.4455C36.8283 18.3726 36.2379 15.2858 34.8552 12.5286C33.4724 9.77136 31.3517 7.45194 28.729 5.8285C26.1063 4.20506 23.0845 3.34129 20 3.33332Z" fill="#D8F0FA"/>
<path d="M29.65 15.8333C29.6599 14.9973 29.4211 14.1772 28.9638 13.4772C28.5065 12.7772 27.8515 12.229 27.0819 11.9022C26.3124 11.5753 25.463 11.4847 24.6418 11.6417C23.8206 11.7987 23.0646 12.1963 22.4698 12.784C21.8751 13.3716 21.4685 14.1228 21.3017 14.9421C21.1349 15.7614 21.2155 16.6118 21.5331 17.3852C21.8507 18.1586 22.3911 18.8201 23.0856 19.2857C23.78 19.7513 24.5972 19.9999 25.4333 20C26.5417 19.9958 27.6043 19.557 28.3927 18.7779C29.1811 17.9988 29.6326 16.9416 29.65 15.8333ZM22.2833 15.8333C22.2866 15.2077 22.4751 14.5971 22.8251 14.0786C23.175 13.56 23.6708 13.1567 24.2497 12.9196C24.8286 12.6825 25.4648 12.6221 26.0779 12.7462C26.6911 12.8703 27.2538 13.1732 27.695 13.6167C28.1362 14.0602 28.4361 14.6245 28.557 15.2383C28.6778 15.8521 28.6142 16.488 28.374 17.0656C28.1338 17.6433 27.728 18.1369 27.2076 18.4841C26.6872 18.8313 26.0756 19.0166 25.45 19.0167C25.0313 19.0167 24.6168 18.9337 24.2304 18.7725C23.844 18.6112 23.4935 18.375 23.199 18.0774C22.9045 17.7798 22.6719 17.4268 22.5147 17.0387C22.3576 16.6507 22.2789 16.2353 22.2833 15.8167V15.8333Z" fill="#D8F0FA"/>
</svg>
